# xmcd
#
# Track frame offsets:
#	150
#	39260
#	70972
#	102935
#	142007
#	169607
#	196157
#	229460
#
# Disc length: 3600 seconds
#
# Revision: 1
# Processed by: cddbd v1.5.2PL0 Copyright (c) Steve Scherf et al.
# Submitted via: EasyCDDAExtractor 2010.6.0.0
#
DISCID=6b0e0e08
DTITLE=Lemon Jelly - Lost Horizons
DYEAR=2002
DGENRE=Electronica/Dance
TTITLE0=Elements
TTITLE1=Spacewalk
TTITLE2=Ramblin' Man
TTITLE3=Return To Patagonia
TTITLE4=Nice Weather For Ducks
TTITLE5=Experiment Number Six
TTITLE6=Closer
TTITLE7=The Curse Of Ka'zar
EXTD=
EXTT0=
EXTT1=
EXTT2=
EXTT3=
EXTT4=
EXTT5=
EXTT6=
EXTT7=
PLAYORDER=
